<mxfile host="app.diagrams.net" modified="2021-04-12T20:06:35.958Z" agent="5.0 (Macintosh; Intel Mac OS X 10_15_7) AppleWebKit/537.36 (KHTML, like Gecko) Chrome/89.0.4389.90 Safari/537.36 Edg/89.0.774.63" etag="VHwJIGfgPg3acpD7KGnk" version="14.5.3" type="github">
  <diagram id="SjxEzp3B3Er_9qphzSCv" name="Page-1">
    <mxGraphModel dx="1554" dy="860" grid="1" gridSize="10" guides="1" tooltips="1" connect="1" arrows="1" fold="1" page="1" pageScale="1" pageWidth="850" pageHeight="1100" math="0" shadow="0">
      <root>
        <mxCell id="0" />
        <mxCell id="1" parent="0" />
        <mxCell id="lehfB2Kb_rCUWP32BNfx-1" value="Nexus Banking Demo" style="rounded=1;whiteSpace=wrap;html=1;verticalAlign=top;" vertex="1" parent="1">
          <mxGeometry x="80" y="110" width="270" height="180" as="geometry" />
        </mxCell>
        <mxCell id="lehfB2Kb_rCUWP32BNfx-2" value="BG POC" style="rounded=1;whiteSpace=wrap;html=1;" vertex="1" parent="1">
          <mxGeometry x="220" y="150" width="120" height="130" as="geometry" />
        </mxCell>
        <mxCell id="lehfB2Kb_rCUWP32BNfx-3" value="" style="shape=flexArrow;endArrow=classic;html=1;" edge="1" parent="1">
          <mxGeometry width="50" height="50" relative="1" as="geometry">
            <mxPoint x="310" y="211" as="sourcePoint" />
            <mxPoint x="400" y="211" as="targetPoint" />
          </mxGeometry>
        </mxCell>
        <mxCell id="lehfB2Kb_rCUWP32BNfx-4" value="" style="shape=flexArrow;endArrow=classic;html=1;" edge="1" parent="1">
          <mxGeometry width="50" height="50" relative="1" as="geometry">
            <mxPoint x="300" y="130" as="sourcePoint" />
            <mxPoint x="600" y="130" as="targetPoint" />
          </mxGeometry>
        </mxCell>
        <mxCell id="lehfB2Kb_rCUWP32BNfx-5" value="AWS" style="shape=cylinder3;whiteSpace=wrap;html=1;boundedLbl=1;backgroundOutline=1;size=15;" vertex="1" parent="1">
          <mxGeometry x="410" y="180" width="60" height="80" as="geometry" />
        </mxCell>
        <mxCell id="lehfB2Kb_rCUWP32BNfx-6" value="MS&lt;br&gt;AD" style="shape=cylinder3;whiteSpace=wrap;html=1;boundedLbl=1;backgroundOutline=1;size=15;" vertex="1" parent="1">
          <mxGeometry x="610" y="90" width="60" height="80" as="geometry" />
        </mxCell>
        <mxCell id="lehfB2Kb_rCUWP32BNfx-7" value="API Mocks" style="rounded=1;whiteSpace=wrap;html=1;" vertex="1" parent="1">
          <mxGeometry x="90" y="220" width="120" height="60" as="geometry" />
        </mxCell>
        <mxCell id="lehfB2Kb_rCUWP32BNfx-8" value="" style="shape=flexArrow;endArrow=classic;html=1;" edge="1" parent="1">
          <mxGeometry width="50" height="50" relative="1" as="geometry">
            <mxPoint x="279.5" y="240" as="sourcePoint" />
            <mxPoint x="280" y="340" as="targetPoint" />
          </mxGeometry>
        </mxCell>
        <mxCell id="lehfB2Kb_rCUWP32BNfx-9" value="API" style="ellipse;shape=cloud;whiteSpace=wrap;html=1;" vertex="1" parent="1">
          <mxGeometry x="220" y="340" width="120" height="80" as="geometry" />
        </mxCell>
        <mxCell id="lehfB2Kb_rCUWP32BNfx-10" value="Disputes UI" style="rounded=1;whiteSpace=wrap;html=1;" vertex="1" parent="1">
          <mxGeometry x="90" y="150" width="120" height="60" as="geometry" />
        </mxCell>
      </root>
    </mxGraphModel>
  </diagram>
</mxfile>
